#!OML:ASF C:\ViconDB\ViconDB\414\Spring2016\041811\Spring2016.ASF
:FULLY-SPECIFIED
:DEGREES
316
root 9.99906 17.0885 -17.1251 -174.766 -4.09214 -189.744
lowerback -4.95898 -1.93141 -1.62986
upperback -2.27025 -2.59973 -0.144542
thorax 0.509345 -1.33356 0.625257
lowerneck -10.1224 0.097384 -9.00673
upperneck 28.6599 3.93678 1.93375
head 10.7293 1.94963 2.88203
rclavicle -2.80783e-015 -2.70347e-014
rhumerus -85.0648 30.8656 -114.797
rradius 93.4438
rwrist 34.5181
rhand -39.9091 -0.258579
rfingers 7.12502
rthumb -12.8802 -29.8411
lclavicle -2.80783e-015 -2.70347e-014
lhumerus -92.0689 -43.5468 122.111
lradius 79.8442
lwrist -19.0191
lhand -40.0576 -1.41886
lfingers 7.12502
lthumb -13.0233 28.1546
rfemur 191.613 390.127 -156.196
rtibia 37.5
rfoot -20.8053 -62.0484
rtoes -30.2468
lfemur 13.9095 -4.20814 -39.6445
ltibia 11.5344
lfoot -16.3976 -15.6182
ltoes -9.75006
317
root 9.98969 17.0958 -17.3255 -174.72 -4.34988 -189.268
lowerback -4.98303 -2.07545 -1.20709
upperback -2.285 -2.80992 0.023774
thorax 0.501309 -1.43956 0.549426
lowerneck -10.1925 0.0653294 -8.76757
upperneck 28.5833 3.88064 1.70172
head 10.7274 1.91355 2.74889
rclavicle 3.41164e-014 -3.02153e-014
rhumerus -84.9075 31.2401 -114.726
rradius 93.6681
rwrist 34.6081
rhand -39.6956 0.0518184
rfingers 7.12502
rthumb -12.6743 -29.5436
lclavicle 3.41164e-014 -3.02153e-014
lhumerus -91.9277 -42.8951 122.03
lradius 79.445
lwrist -19.3533
lhand -40.3888 -1.47413
lfingers 7.12502
lthumb -13.3426 28.0787
rfemur 190.416 390.416 -155.984
rtibia 38.3319
rfoot -21.8307 -62.7337
rtoes -31.1043
lfemur 14.07 -4.32956 -39.0809
ltibia 12.4246
lfoot -15.7291 -15.5961
ltoes -10.0012
318
root 9.9825 17.1117 -17.5212 -174.614 -4.65018 -188.798
lowerback -4.98473 -2.1707 -0.884107
upperback -2.35331 -2.95597 0.280447
thorax 0.432531 -1.51389 0.625603
lowerneck -10.1182 -0.035145 -8.77199
upperneck 28.4346 3.72553 1.60697
head 10.669 1.82804 2.69019
rclavicle -1.42628e-014 -3.18055e-014
rhumerus -84.8655 31.5698 -114.444
rradius 93.999
rwrist 34.7808
rhand -39.7431 -0.22843
rfingers 7.12502
rthumb -12.7201 -29.821
lclavicle -1.42628e-014 -3.18055e-014
lhumerus -91.9532 -42.4159 122.334
lradius 79.0861
lwrist -19.5976
lhand -40.7581 -0.923084
lfingers 7.12502
lthumb -13.6985 28.6061
rfemur 189.471 390.723 -155.676
rtibia 38.968
rfoot -23.2455 -63.3235
rtoes -31.5825
lfemur 14.1789 -4.7193 -38.533
ltibia 13.2302
lfoot -14.9027 -15.493
ltoes -10.0794
319
root 9.9814 17.1519 -17.7347 -174.672 -4.96184 -188.188
lowerback -5.12188 -2.31962 -0.45798
upperback -2.29362 -3.17241 0.481146
thorax 0.562729 -1.62346 0.573603
lowerneck -10.1542 -0.110201 -8.75227
upperneck 28.353 3.57231 1.63891
head 10.6526 1.75441 2.67715
rclavicle 9.19379e-015 5.88403e-014
rhumerus -84.7653 31.7833 -114.423
rradius 94.2757
rwrist 34.5731
rhand -39.1907 -0.0175026
rfingers 7.12502
rthumb -12.1875 -29.6425
lclavicle 9.19379e-015 5.88403e-014
lhumerus -92.1264 -41.888 122.474
lradius 79.0679
lwrist -18.6381
lhand -40.717 -1.41093
lfingers 7.12502
lthumb -13.6589 28.1209
rfemur 188.315 391.127 -155.301
rtibia 39.4294
rfoot -24.2746 -63.2452
rtoes -31.6063
lfemur 14.3769 -4.69178 -37.6236
ltibia 14.1417
lfoot -13.7123 -15.8464
ltoes -10.6313
